<svg viewBox="0 0 388.87 146.39" xmlns="http://www.w3.org/2000/svg"><path d="m29.52 0a30.59 30.59 0 0 1 10.74 1.84 23.33 23.33 0 0 1 8.61 5.52 25.49 25.49 0 0 1 5.69 9.19 37.38 37.38 0 0 1 2 13 41.59 41.59 0 0 1 -1.67 12.05 26.64 26.64 0 0 1 -5.06 9.53 23.7 23.7 0 0 1 -8.45 6.31 28.59 28.59 0 0 1 -11.91 2.3h-25.7v-59.74zm-.92 48.66a16.74 16.74 0 0 0 5.52-.92 12.1 12.1 0 0 0 4.76-3.05 15.4 15.4 0 0 0 3.35-5.56 24.58 24.58 0 0 0 1.25-8.36 34.51 34.51 0 0 0 -.88-8.15 16.13 16.13 0 0 0 -2.88-6.23 12.8 12.8 0 0 0 -5.31-4 21.18 21.18 0 0 0 -8.15-1.39h-9.37v37.66z"/><path d="m72.41 16.47v8h.17a14.53 14.53 0 0 1 2.26-3.72 14.84 14.84 0 0 1 3.25-2.93 16 16 0 0 1 3.91-1.82 14 14 0 0 1 4.34-.67 9.29 9.29 0 0 1 2.6.42v11q-.84-.17-2-.3a22.11 22.11 0 0 0 -2.26-.12 12.75 12.75 0 0 0 -5.52 1.08 9.67 9.67 0 0 0 -3.63 3 12 12 0 0 0 -2 4.39 24 24 0 0 0 -.53 5.42v19.48h-11.88v-43.23z"/><path d="m104.85 49.33c1.79 1.73 4.35 2.59 7.7 2.59a10.54 10.54 0 0 0 6.18-1.79 7.46 7.46 0 0 0 3.18-3.81h10.45q-2.51 7.78-7.69 11.12a22.66 22.66 0 0 1 -12.54 3.35 24.84 24.84 0 0 1 -9.2-1.63 19.3 19.3 0 0 1 -6.93-4.64 21 21 0 0 1 -4.39-7.19 26.39 26.39 0 0 1 -1.54-9.2 25.21 25.21 0 0 1 1.58-9 20.95 20.95 0 0 1 11.5-12 22.39 22.39 0 0 1 9-1.76 20.54 20.54 0 0 1 9.61 2.13 19.23 19.23 0 0 1 6.74 5.73 23.68 23.68 0 0 1 3.8 8.19 30.67 30.67 0 0 1 .84 9.62h-31.21c.17 3.78 1.14 6.56 2.92 8.29zm13.42-22.74q-2.13-2.34-6.48-2.34a10.36 10.36 0 0 0 -4.72 1 9.09 9.09 0 0 0 -3 2.38 8.85 8.85 0 0 0 -1.59 3 13.09 13.09 0 0 0 -.54 2.84h19.31a13.6 13.6 0 0 0 -2.98-6.88z"/><path d="m139.64 29.77a13.68 13.68 0 0 1 2.09-6.94 14.19 14.19 0 0 1 4.68-4.44 20.64 20.64 0 0 1 6.4-2.38 36.55 36.55 0 0 1 7.19-.71 49.53 49.53 0 0 1 6.61.46 20.34 20.34 0 0 1 6.1 1.8 12 12 0 0 1 4.52 3.72 10.4 10.4 0 0 1 1.76 6.31v22.49a45.87 45.87 0 0 0 .33 5.61 10 10 0 0 0 1.17 4h-12a17.64 17.64 0 0 1 -.54-2.05 16.78 16.78 0 0 1 -.29-2.13 15.51 15.51 0 0 1 -6.7 4.1 26.8 26.8 0 0 1 -7.96 1.18 20.86 20.86 0 0 1 -5.77-.76 13.17 13.17 0 0 1 -4.69-2.34 10.8 10.8 0 0 1 -3.13-4 13.47 13.47 0 0 1 -1.13-5.77 12.54 12.54 0 0 1 1.3-6.06 10.77 10.77 0 0 1 3.36-3.86 15.29 15.29 0 0 1 4.68-2.13 51.74 51.74 0 0 1 5.31-1.13c1.78-.28 3.54-.5 5.27-.67a30.06 30.06 0 0 0 4.6-.75 8.1 8.1 0 0 0 3.2-1.42 3.23 3.23 0 0 0 1.08-2.8 6.39 6.39 0 0 0 -.62-3.05 4.59 4.59 0 0 0 -1.68-1.76 6.55 6.55 0 0 0 -2.42-.84 21.18 21.18 0 0 0 -3-.21 9 9 0 0 0 -5.52 1.51q-2 1.5-2.34 5zm27.42 8.78a5.4 5.4 0 0 1 -1.88 1 19.83 19.83 0 0 1 -2.42.63c-.87.16-1.77.3-2.72.42s-1.9.25-2.84.41a23.73 23.73 0 0 0 -2.64.67 8 8 0 0 0 -2.26 1.13 5.37 5.37 0 0 0 -1.54 1.8 5.76 5.76 0 0 0 -.59 2.76 5.55 5.55 0 0 0 .59 2.67 4.47 4.47 0 0 0 1.59 1.72 6.74 6.74 0 0 0 2.34.88 15.57 15.57 0 0 0 2.76.25 10.48 10.48 0 0 0 5.43-1.17 7.86 7.86 0 0 0 2.84-2.8 8.87 8.87 0 0 0 1.13-3.31 22.42 22.42 0 0 0 .21-2.67z"/><path d="m199.67 16.47v5.85h.17a17 17 0 0 1 5.64-5.18 15.26 15.26 0 0 1 7.57-1.84 17.35 17.35 0 0 1 7.48 1.59 10.57 10.57 0 0 1 5.15 5.6 18.44 18.44 0 0 1 5.22-5 13.89 13.89 0 0 1 7.82-2.18 23 23 0 0 1 6.35.84 13 13 0 0 1 5 2.67 12.32 12.32 0 0 1 3.26 4.81 19.51 19.51 0 0 1 1.17 7.15v28.92h-11.85v-24.5c0-1.45-.06-2.81-.17-4.1a8.7 8.7 0 0 0 -.92-3.34 5.55 5.55 0 0 0 -2.22-2.26 8.06 8.06 0 0 0 -4-.83 7.59 7.59 0 0 0 -4.05 1 7 7 0 0 0 -2.43 2.51 10.24 10.24 0 0 0 -1.17 3.51 27.59 27.59 0 0 0 -.29 4v24.01h-11.84v-24.25c0-1.28 0-2.55-.09-3.8a10.46 10.46 0 0 0 -.71-3.47 5.26 5.26 0 0 0 -2.09-2.55 7.87 7.87 0 0 0 -4.3-1 8.89 8.89 0 0 0 -2.22.37 7.38 7.38 0 0 0 -2.67 1.42 8.23 8.23 0 0 0 -2.22 3 12.3 12.3 0 0 0 -.92 5.15v25.13h-11.87v-43.23z"/><path d="m13.8 116.54a9.52 9.52 0 0 0 2.88 3.39 12.62 12.62 0 0 0 4.23 1.92 19.77 19.77 0 0 0 5 .63 27 27 0 0 0 3.77-.29 13.55 13.55 0 0 0 3.76-1.13 8.28 8.28 0 0 0 2.92-2.3 5.79 5.79 0 0 0 1.19-3.76 5.23 5.23 0 0 0 -1.55-3.89 12.21 12.21 0 0 0 -4.06-2.51 40.25 40.25 0 0 0 -5.68-1.76q-3.18-.75-6.44-1.67a56.78 56.78 0 0 1 -6.52-2 22.47 22.47 0 0 1 -5.69-3.17 14.89 14.89 0 0 1 -4.05-4.81 14.51 14.51 0 0 1 -1.56-6.99 15.64 15.64 0 0 1 2-8 17.72 17.72 0 0 1 5.15-5.64 22.3 22.3 0 0 1 7.19-3.35 30.72 30.72 0 0 1 8-1.08 37.77 37.77 0 0 1 9 1 22.51 22.51 0 0 1 7.66 3.44 17.08 17.08 0 0 1 5.31 6 18.3 18.3 0 0 1 2 8.82h-12.77a10.51 10.51 0 0 0 -1.13-4.43 7.24 7.24 0 0 0 -2.55-2.76 10.78 10.78 0 0 0 -3.64-1.43 23 23 0 0 0 -4.47-.41 15.61 15.61 0 0 0 -3.18.33 8.52 8.52 0 0 0 -2.88 1.17 7.36 7.36 0 0 0 -2.14 2.09 5.69 5.69 0 0 0 -.83 3.18 5.31 5.31 0 0 0 .67 2.87 5.86 5.86 0 0 0 2.61 2 33.5 33.5 0 0 0 5.44 1.84q3.46.92 9.07 2.34c1.11.22 2.66.63 4.64 1.21a22.39 22.39 0 0 1 5.89 2.8 17.89 17.89 0 0 1 5.06 5.15 14.62 14.62 0 0 1 2.13 8.23 18.24 18.24 0 0 1 -1.59 7.61 16.43 16.43 0 0 1 -4.72 6.06 22.55 22.55 0 0 1 -7.78 4 36.63 36.63 0 0 1 -10.74 1.42 37.58 37.58 0 0 1 -9.57-1.21 23.86 23.86 0 0 1 -8.2-3.8 18.73 18.73 0 0 1 -5.63-6.65 19.8 19.8 0 0 1 -2-9.53h12.71a10.86 10.86 0 0 0 1.09 5.07z"/><path d="m72.75 144.13q-3.44 2.26-9.54 2.26-1.83 0-3.63-.12l-3.64-.3v-9.78l3.43.33a24.21 24.21 0 0 0 3.51.09 4.62 4.62 0 0 0 3.47-1.84 6 6 0 0 0 1.13-3.51 7.25 7.25 0 0 0 -.5-2.68l-15.14-40.58h12.63l9.78 29.6h.17l9.45-29.6h12.29l-18.06 48.61q-1.93 5.27-5.35 7.52z"/><path d="m111.46 88v6h.25a13.61 13.61 0 0 1 5.85-5.48 17 17 0 0 1 7.36-1.71 20.27 20.27 0 0 1 7.82 1.29 11.71 11.71 0 0 1 4.81 3.6 13.85 13.85 0 0 1 2.46 5.6 35.09 35.09 0 0 1 .71 7.32v26.59h-11.87v-24.37c0-3.56-.56-6.23-1.67-8s-3.1-2.64-5.94-2.64q-4.84 0-7 2.89t-2.24 9.51v22.66h-11.83v-43.26z"/><path d="m180.44 125.74a12.28 12.28 0 0 1 -5.44 5.06 20 20 0 0 1 -16.18-.34 17.06 17.06 0 0 1 -6.06-5.1 23.07 23.07 0 0 1 -3.6-7.4 31.29 31.29 0 0 1 -1.21-8.69 29.54 29.54 0 0 1 1.21-8.41 22 22 0 0 1 3.6-7.15 17.88 17.88 0 0 1 6-5 17.68 17.68 0 0 1 8.36-1.88 17 17 0 0 1 7.32 1.63 12.72 12.72 0 0 1 5.47 4.81h.09v-21.71h11.87v59.7h-11.26v-5.52zm-.5-21.37a12.61 12.61 0 0 0 -1.72-4.34 9.6 9.6 0 0 0 -3.13-3 9.22 9.22 0 0 0 -4.85-1.18 9.66 9.66 0 0 0 -4.94 1.15 9.35 9.35 0 0 0 -3.22 3.09 13.83 13.83 0 0 0 -1.75 4.39 23.34 23.34 0 0 0 -.54 5.14 22 22 0 0 0 .58 5 13.78 13.78 0 0 0 1.88 4.47 10.41 10.41 0 0 0 3.26 3.18 8.83 8.83 0 0 0 4.73 1.21 9.42 9.42 0 0 0 4.89-1.17 8.88 8.88 0 0 0 3.13-3.14 14.11 14.11 0 0 0 1.68-4.47 26.69 26.69 0 0 0 .5-5.18 26.15 26.15 0 0 0 -.5-5.15z"/><path d="m201.17 81.34v-9.78h11.88v9.78zm11.88 6.66v43.23h-11.88v-43.23z"/><path d="m243.06 95.8a8.36 8.36 0 0 0 -4.76 1.3 10.46 10.46 0 0 0 -3.14 3.34 14.4 14.4 0 0 0 -1.71 4.52 24.16 24.16 0 0 0 -.5 4.89 23.16 23.16 0 0 0 .5 4.77 14.39 14.39 0 0 0 1.63 4.39 9.39 9.39 0 0 0 3 3.22 8.42 8.42 0 0 0 4.68 1.25 8.72 8.72 0 0 0 6.57-2.38 11.29 11.29 0 0 0 2.88-6.4h11.46q-1.19 8.61-6.69 13.13t-14.13 4.51a23.63 23.63 0 0 1 -8.91-1.63 19.73 19.73 0 0 1 -6.9-4.55 20.81 20.81 0 0 1 -4.43-7 24.16 24.16 0 0 1 -1.59-8.9 28.63 28.63 0 0 1 1.47-9.32 21 21 0 0 1 4.3-7.44 19.78 19.78 0 0 1 6.94-4.9 23.62 23.62 0 0 1 9.37-1.75 27.09 27.09 0 0 1 7.4 1 20 20 0 0 1 6.35 3 16.4 16.4 0 0 1 4.56 5.1 16.22 16.22 0 0 1 2 7.24h-11.57q-1.17-7.38-8.78-7.39z"/><path d="m269.9 101.32a13.91 13.91 0 0 1 2.1-6.94 14.29 14.29 0 0 1 4.68-4.38 20.33 20.33 0 0 1 6.39-2.38 36.65 36.65 0 0 1 7.15-.71 48 48 0 0 1 6.61.46 20.42 20.42 0 0 1 6.1 1.8 12 12 0 0 1 4.52 3.72 10.39 10.39 0 0 1 1.75 6.31v22.49a43.76 43.76 0 0 0 .34 5.6 10 10 0 0 0 1.17 4h-12a15.87 15.87 0 0 1 -.55-2 18.81 18.81 0 0 1 -.29-2.13 15.46 15.46 0 0 1 -6.69 4.09 26.82 26.82 0 0 1 -7.86 1.17 21.35 21.35 0 0 1 -5.77-.75 13.21 13.21 0 0 1 -4.68-2.34 11 11 0 0 1 -3.14-4 13.62 13.62 0 0 1 -1.13-5.77 12.69 12.69 0 0 1 1.3-6.07 10.85 10.85 0 0 1 3.35-3.8 14.73 14.73 0 0 1 4.68-2.13 50.63 50.63 0 0 1 5.31-1.13c1.78-.28 3.54-.5 5.27-.67a32.59 32.59 0 0 0 4.59-.75 8.1 8.1 0 0 0 3.18-1.46 3.24 3.24 0 0 0 1.09-2.81 6.27 6.27 0 0 0 -.63-3.05 4.54 4.54 0 0 0 -1.74-1.84 6.6 6.6 0 0 0 -2.4-.85 19.73 19.73 0 0 0 -3-.21 9 9 0 0 0 -5.52 1.51q-2 1.5-2.34 5zm27.43 8.78a5.26 5.26 0 0 1 -1.88 1.05 20 20 0 0 1 -2.43.63c-.86.16-1.77.3-2.72.41s-1.89.25-2.84.42a21.56 21.56 0 0 0 -2.63.67 7.84 7.84 0 0 0 -2.26 1.13 5.3 5.3 0 0 0 -1.55 1.8 5.76 5.76 0 0 0 -.58 2.76 5.58 5.58 0 0 0 .58 2.67 4.47 4.47 0 0 0 1.59 1.72 6.73 6.73 0 0 0 2.34.87 14.76 14.76 0 0 0 2.76.25 10.44 10.44 0 0 0 5.44-1.17 7.78 7.78 0 0 0 2.84-2.8 8.94 8.94 0 0 0 1.13-3.3 22.71 22.71 0 0 0 .21-2.68z"/><path d="m342.15 88v8h-8.7v21.41c0 2 .33 3.34 1 4s2 1 4 1c.66 0 1.3 0 1.92-.08a15.86 15.86 0 0 0 1.76-.25v9.2a31.15 31.15 0 0 1 -3.35.33c-1.23.06-2.42.08-3.6.08a34.76 34.76 0 0 1 -5.22-.37 12.41 12.41 0 0 1 -4.35-1.46 7.85 7.85 0 0 1 -3-3.1 11.1 11.1 0 0 1 -1.09-5.27v-25.49h-7.19v-8h7.19v-13h11.88v13z"/><path d="m360.54 120.89c1.78 1.73 4.35 2.59 7.69 2.59a10.58 10.58 0 0 0 6.19-1.8 7.44 7.44 0 0 0 3.18-3.8h10.45q-2.52 7.77-7.69 11.12a22.66 22.66 0 0 1 -12.55 3.34 24.59 24.59 0 0 1 -9.19-1.63 18.88 18.88 0 0 1 -6.94-4.64 20.7 20.7 0 0 1 -4.39-7.19 26.11 26.11 0 0 1 -1.55-9.19 25.23 25.23 0 0 1 1.59-9 20.89 20.89 0 0 1 11.49-12 22.42 22.42 0 0 1 9-1.75 20.58 20.58 0 0 1 9.61 2.06 19.2 19.2 0 0 1 6.73 5.73 23.6 23.6 0 0 1 3.8 8.19 30.64 30.64 0 0 1 .84 9.62h-31.19c.17 3.83 1.14 6.62 2.93 8.35zm13.46-22.74c-1.42-1.56-3.58-2.35-6.48-2.35a10.29 10.29 0 0 0 -4.72 1 9 9 0 0 0 -3 2.38 8.65 8.65 0 0 0 -1.58 3 13.8 13.8 0 0 0 -.55 2.84h19.32a13.73 13.73 0 0 0 -2.99-6.87z"/></svg>