<svg height="211.39999" viewBox="0 0 599.90002 211.39999" width="599.90002" xmlns="http://www.w3.org/2000/svg"><g transform="translate(-20.5 -216)"><path d="m64.2 259.7c0-24.1 19.6-43.7 43.7-43.7s43.7 19.6 43.7 43.7zm0 87.5c0 24.1 19.6 43.7 43.7 43.7s43.7-19.6 43.7-43.7zm39.6-43.9c-22.2-2.1-39.6-20.8-39.6-43.5-24.1 0-43.7 19.6-43.7 43.8 0 24.1 19.6 43.7 43.7 43.7 0-22.8 17.4-41.5 39.6-43.5zm8.3.4c22.2 2.1 39.6 20.8 39.6 43.5 24.2 0 43.7-19.6 43.7-43.7 0-24.2-19.6-43.8-43.7-43.8 0 22.8-17.4 41.5-39.6 43.5z" fill="#009394"/><path d="m564.8 347.8h-19.3v-88h19.3zm-27.8-84.6c-6.5-3.3-14.2-5.1-22-5.1-28.9 0-48.7 22-48.7 46.9 0 24.2 20.5 45.4 48.4 45.4 8 0 15.3-2.2 22.4-5.1v-20.3c-5.3 5.5-13.6 8.9-21.8 8.9-18 0-28.9-14.5-28.9-29.2 0-15.1 10.5-29.8 29.1-29.8 8.2 0 16.4 3.1 21.6 8.9v-20.6m-145 11.9v-15.4h-51.4v88h51.4v-15.1h-32v-21.9h30.7v-15.4h-30.7v-20.2zm173.4 24.7 32.5 48h22.4l-33-48 28.8-40h-22.3zm-145.7-25.7h12.3c6.4.7 11.4 6.1 11.4 12.7 0 7-5.7 12.8-12.8 12.8h-.2c-.8 0-4.7.1-5.6.1h-2.4-2.2l32.1 48.1h21.8l-26.8-37.9c11.1-3.8 15.7-13.2 15.7-23.9 0-14.4-11.7-26.1-26.1-26.1-.5 0-36.7 0-36.7 0v88h19.3v-73.8zm-135.3 74.7 27.2-63.4v62.5h19v-88h-28.1l-18 45.1-18.1-45.1h-28.1v88h18.9v-62.5zm-48.9 77.6h6l4.6-11h19.5l4.5 11h6.4l-17-42.1h-6.2zm20.6-36.3 7.7 20.6h-15.9zm26.3 36.3h5.5v-16.9c0-5.9 3.7-8.7 7.6-8.7 1.9 0 3.8.6 5.2 2 1.4 1.3 1.6 3.1 1.6 5v18.6h5.6v-19.9c0-9-8-10-10.6-10-6.6 0-8.8 4.1-9.4 5.3l-.1-4.7h-5.5l.1 3.4zm34.9-36h6.6v-6h-6.6zm.6 36h5.5v-29.3h-5.5zm16.1 0h5.5v-16.6c0-1.9.1-4.3 1.3-5.9.6-.9 2.7-3.2 6.4-3.2 4.3 0 6.4 2.8 6.4 6.4v19.4h5.5v-16.5c0-1.3 0-4.5 1.3-6.3.8-1 2.7-3.1 6.2-3.1 2.8 0 4.7 1.2 5.6 2.6.5.7 1 1.9 1 4.4v18.8h5.5v-19.6c0-8.6-6.5-10.4-10.7-10.4-6.5 0-8.9 3.8-9.9 5.5-1.1-2.2-3.1-5.5-9.6-5.5-2.5 0-6.5.4-9.3 5v-4.3h-5.3l.1 3.9zm77.9 0c-.4-3-.5-6.9-.5-7.3l.2-14c0-1.3-.1-2.7-1-4.5-1.6-3-6.1-4.3-10.4-4.3-3.1 0-7.2.7-9.4 3.1-1.7 2-1.9 4-2 5.5h5.5c.1-1.2.4-5 5.9-5 1.6 0 4 .5 5.1 1.9 1 1.3 1 2.9 1 6.5-1.7-.1-2.6-.2-4-.2-2.3 0-7 .2-10.1 1.9-4.3 2.5-5.1 6.2-5.1 8.6 0 4.8 3.6 8.6 10.3 8.6 2.4 0 6.4-.5 9-5.3 0 1.5.1 2.9.5 4.4h5zm-5.6-14.2c-.1 4.1-.2 5.7-1.4 7.7-1.3 2-3.4 3.1-6.2 3.1-4.9 0-6.1-3.2-6.1-5.1 0-5.9 8.3-5.9 10.6-5.9 1.3 0 2.1.1 3.1.2m15.3 14.2h5.5v-42h-5.5zm32.4-42.1v42.1h5.8v-19h20v19h5.8v-42.1h-5.8v18.1h-20v-18.1zm66.4 28.5c.1-4.8.4-16.4-12.7-16.4-1.7 0-5.2.2-8 2.2-4.6 3.2-5.8 8-5.8 13.8 0 9.3 4.4 15 13.6 15 5.9 0 8.8-2.4 10.1-3.9 2.1-2.3 2.3-4.7 2.5-6.1h-5.5c-.5 4.2-3.3 6.1-6.9 6.1-6 0-8.5-4.5-8.4-10.6h21.1zm-20.8-3.9c.1-6.5 4.4-8.6 8-8.6 6.8 0 7.3 5.8 7.2 8.6zm51.7 17.5c-.4-3-.5-6.9-.5-7.3l.2-14c0-1.3-.1-2.7-1-4.5-1.6-3-6.1-4.3-10.4-4.3-3.1 0-7.2.7-9.4 3.1-1.7 2-1.9 4-2 5.5h5.5c.1-1.2.3-5 5.9-5 1.6 0 4 .5 5.1 1.9 1.1 1.3 1.1 2.9 1.1 6.5-1.7-.1-2.6-.2-4-.2-2.3 0-7 .2-10.1 1.9-4.3 2.5-5.1 6.2-5.1 8.6 0 4.8 3.6 8.6 10.3 8.6 2.5 0 6.4-.5 9-5.3 0 1.5.1 2.9.5 4.4h4.9zm-5.6-14.2c-.1 4.1-.2 5.7-1.4 7.7-1.3 2-3.4 3.1-6.2 3.1-4.9 0-6.1-3.2-6.1-5.1 0-5.9 8.3-5.9 10.6-5.9 1.3 0 2.1.1 3.1.2m14.6 14.2h5.5v-42h-5.5zm10.9-25.3h5.2v19.5c0 4.8 2.4 6.2 7.4 6.2 2 0 3.6-.2 4.5-.3v-4.3c-.5.1-1.5.3-2.6.3-3.9 0-3.9-2.4-3.9-3.9v-17.5h6.5v-4h-6.4v-7.9l-5.4 1.7v6.1h-5.2v4.1zm23.9 25.3h5.5v-15.5c0-1.8 0-4.5.9-6.2.8-1.4 2.8-3.9 6.9-3.9 6.3 0 6.3 5.6 6.3 8.3v17.3h5.6v-18.3c0-4.3-.4-5.7-1-6.8-1.7-3.6-6.1-4.7-9.2-4.7-4.1 0-7.7 1.7-9.5 4.8v-17.1h-5.5z" fill="#243446"/></g></svg>