<svg enable-background="new 0 0 274.965 88.181" height="88.181" viewBox="0 0 274.965 88.181" width="274.965" xmlns="http://www.w3.org/2000/svg"><g fill="#2e348d"><path d="m66.271 84.681c-1.128 1.129-2.757 1.992-4.889 2.595-2.133.604-4.689.905-7.665.905-2.978 0-5.794-.442-8.45-1.327-2.655-.885-4.828-3.019-6.518-6.398l-11.951-24.384c-1.207-2.494-2.293-4.848-3.259-7.062-.966-2.213-2.013-4.769-3.139-7.666l-.724.121c.32 4.346.501 8.772.543 13.277.04 4.509.061 8.934.061 13.279v18.71c-.887.242-2.233.482-4.044.725-1.811.241-3.603.362-5.372.362-1.771 0-3.341-.121-4.708-.362-1.369-.242-2.496-.725-3.38-1.448-.886-.725-1.569-1.708-2.052-2.957-.483-1.246-.724-2.876-.724-4.889v-60.356c1.125-1.607 2.855-2.815 5.19-3.621 2.333-.803 4.829-1.207 7.484-1.207 2.977 0 5.813.465 8.51 1.389 2.695.926 4.847 3.038 6.458 6.337l12.071 24.384c1.208 2.496 2.293 4.85 3.259 7.062.966 2.215 2.011 4.769 3.139 7.665l.604-.121c-.322-4.346-.524-8.69-.604-13.035-.081-4.346-.121-8.691-.121-13.037v-19.559c.885-.24 2.233-.482 4.044-.724 1.811-.241 3.601-.362 5.372-.362 3.541 0 6.235.625 8.088 1.871 1.85 1.248 2.776 3.844 2.776 7.786v62.047z"/><path d="m128.385 14.063c.562.887 1.066 2.073 1.51 3.562.441 1.488.664 3.037.664 4.646 0 3.139-.664 5.371-1.992 6.699s-3.12 1.992-5.372 1.992h-25.35v13.641h26.436c.643.887 1.186 2.053 1.629 3.5.441 1.449.664 2.979.664 4.588 0 3.059-.664 5.25-1.991 6.578-1.328 1.328-3.12 1.992-5.372 1.992h-21.125v25.47c-.886.242-2.275.482-4.165.725-1.892.241-3.763.362-5.613.362-1.853 0-3.482-.142-4.889-.423-1.409-.28-2.595-.784-3.561-1.509s-1.69-1.729-2.173-3.019c-.483-1.285-.724-2.976-.724-5.068v-52.509c0-3.459 1.005-6.195 3.018-8.208 2.011-2.011 4.748-3.019 8.208-3.019z"/><path d="m139.368 30.964c-.564-.885-1.086-2.092-1.57-3.621-.481-1.527-.724-3.139-.724-4.829 0-3.138.704-5.39 2.112-6.76 1.408-1.367 3.238-2.052 5.492-2.052h52.631c.562.887 1.086 2.094 1.568 3.621.484 1.529.727 3.139.727 4.828 0 3.139-.707 5.393-2.113 6.76-1.408 1.37-3.24 2.053-5.494 2.053h-13.398v55.769c-.887.242-2.275.482-4.164.725-1.893.241-3.764.362-5.613.362-1.852 0-3.482-.142-4.887-.423-1.412-.28-2.598-.784-3.562-1.509-.967-.725-1.691-1.729-2.174-3.019-.482-1.285-.723-2.976-.723-5.068v-46.837z"/><path d="m219.284 13.702 7.355 11.82h.049v-11.82h3.627v17.62h-3.873l-7.33-11.796h-.049v11.796h-3.629v-17.62z"/><path d="m231.821 13.702h4.344l4.121 6.959 4.098-6.959h4.318l-6.541 10.857v6.763h-3.873v-6.86z"/><path d="m261.485 18.403c-.23-.371-.52-.695-.865-.975-.344-.28-.736-.498-1.172-.654s-.893-.234-1.369-.234c-.873 0-1.613.168-2.221.506-.609.337-1.104.789-1.48 1.357-.379.567-.654 1.213-.828 1.938-.172.724-.258 1.473-.258 2.245 0 .74.086 1.46.258 2.159.174.699.449 1.329.828 1.889.377.559.871 1.008 1.48 1.345.607.337 1.348.506 2.221.506 1.184 0 2.109-.362 2.775-1.086.668-.724 1.074-1.679 1.223-2.862h3.752c-.1 1.102-.355 2.098-.766 2.986-.412.888-.955 1.645-1.629 2.27-.676.625-1.465 1.103-2.369 1.432-.904.328-1.9.494-2.986.494-1.35 0-2.562-.234-3.641-.704-1.078-.469-1.986-1.114-2.727-1.937-.74-.823-1.309-1.79-1.703-2.9s-.592-2.308-.592-3.591c0-1.315.197-2.538.592-3.665s.963-2.109 1.703-2.949c.74-.839 1.648-1.496 2.727-1.975 1.078-.477 2.291-.715 3.641-.715.971 0 1.889.14 2.752.42.863.279 1.637.687 2.32 1.221.682.535 1.246 1.197 1.689 1.986.445.791.725 1.695.84 2.715h-3.752c-.066-.444-.212-.853-.443-1.222z"/><path d="m267.466 45h-53.668c-4.135 0-7.5-3.364-7.5-7.5v-30c0-4.136 3.365-7.5 7.5-7.5h53.668c4.135 0 7.5 3.364 7.5 7.5v30c0 4.136-3.365 7.5-7.5 7.5zm-53.668-42c-2.48 0-4.5 2.019-4.5 4.5v30c0 2.481 2.02 4.5 4.5 4.5h53.668c2.48 0 4.5-2.019 4.5-4.5v-30c0-2.481-2.02-4.5-4.5-4.5z"/></g></svg>