<svg xmlns="http://www.w3.org/2000/svg" width="992" height="60" viewBox="0 0 262.47 15.875"><path fill="#0a3322" d="M-1000.003-6.88h3000v8.582h-1819.5L168.369 13.83h-1168.4z"/><g fill="none" stroke="#86c69a"><path stroke-width=".5" d="M84.69 13.83h83.676l12.128-12.128h1819.5M-445.913 13.83h529.63"/><path stroke-width=".392" d="M84.69 13.83a.49.49 0 0 1-.49.49.49.49 0 0 1-.49-.49.49.49 0 0 1 .49-.49.49.49 0 0 1 .49.49z"/><path stroke-width=".5" d="m126.527 13.83 4.233-4.233h22.271"/><path stroke-width=".5" d="m126.527 13.83 7.408-7.408h13.804"/><path stroke-width=".392" d="M154.007 9.597a.49.49 0 0 1-.49.49.49.49 0 0 1-.49-.49.49.49 0 0 1 .49-.49.49.49 0 0 1 .49.49zM148.717 6.422a.49.49 0 0 1-.49.49.49.49 0 0 1-.49-.49.49.49 0 0 1 .49-.49.49.49 0 0 1 .49.49z"/></g></svg>