<?xml version="1.0" encoding="UTF-8" standalone="no"?>
<!-- Created with Inkscape (http://www.inkscape.org/) -->

<svg
   width="61.84631"
   height="61.84631"
   viewBox="0 0 16.363502 16.363503"
   version="1.1"
   id="svg1"
   sodipodi:docname="logo-square-EDITABLE.svg"
   inkscape:version="1.4.2 (ebf0e940, 2025-05-08)"
   xmlns:inkscape="http://www.inkscape.org/namespaces/inkscape"
   xmlns:sodipodi="http://sodipodi.sourceforge.net/DTD/sodipodi-0.dtd"
   xmlns="http://www.w3.org/2000/svg"
   xmlns:svg="http://www.w3.org/2000/svg">
  <sodipodi:namedview
     id="namedview1"
     pagecolor="#ffffff"
     bordercolor="#000000"
     borderopacity="0.25"
     inkscape:showpageshadow="2"
     inkscape:pageopacity="0.0"
     inkscape:pagecheckerboard="0"
     inkscape:deskcolor="#d1d1d1"
     inkscape:document-units="mm"
     inkscape:zoom="2.9955216"
     inkscape:cx="44.733444"
     inkscape:cy="32.88242"
     inkscape:window-width="1400"
     inkscape:window-height="694"
     inkscape:window-x="487"
     inkscape:window-y="30"
     inkscape:window-maximized="0"
     inkscape:current-layer="layer2" />
  <defs
     id="defs1" />
  <g
     inkscape:groupmode="layer"
     id="layer2"
     inkscape:label="BG"
     transform="translate(-6.2330608,-3.8533955)">
    <rect
       style="opacity:1;fill:#0a3322;fill-opacity:1;stroke-width:0.0544411"
       id="rect3"
       width="48.403309"
       height="34.593327"
       x="-8.8339005"
       y="-9.024785" />
  </g>
  <g
     inkscape:label="Layer 1"
     inkscape:groupmode="layer"
     id="layer1"
     transform="translate(-6.2330608,-3.8533955)">
    <path
       style="font-weight:bold;font-size:14.1111px;font-family:Inter;-inkscape-font-specification:'Inter Bold';fill:#ffffff;stroke-width:0.5"
       d="M 11.342433,18.646178 V 8.4900439 h 2.005044 v 0.9852965 h 0.02067 c 0.151585,-0.2526401 0.333026,-0.4616424 0.544325,-0.6270069 0.215893,-0.1699579 0.459346,-0.296278 0.73036,-0.3789602 0.275607,-0.087276 0.569589,-0.1309135 0.881944,-0.1309135 0.620117,0 1.164441,0.160771 1.632974,0.482313 0.473126,0.3169485 0.840602,0.7602173 1.102429,1.3298062 0.266421,0.564995 0.399631,1.221859 0.399631,1.970593 0,0.75792 -0.130914,1.421674 -0.392741,1.991263 -0.261827,0.569589 -0.627006,1.012857 -1.095539,1.329806 -0.468533,0.316949 -1.022044,0.475423 -1.660535,0.475423 -0.316949,0 -0.61093,-0.04594 -0.881944,-0.137804 -0.26642,-0.09187 -0.50528,-0.229672 -0.716579,-0.413411 -0.206705,-0.183738 -0.37896,-0.413411 -0.516764,-0.689018 h -0.02067 v 3.968747 z m 3.644908,-4.382159 c 0.330729,0 0.615523,-0.08268 0.854383,-0.248046 0.243453,-0.169958 0.431785,-0.413411 0.564995,-0.73036 0.137804,-0.321542 0.206706,-0.709689 0.206706,-1.164441 0,-0.454753 -0.0689,-0.840603 -0.206706,-1.157551 -0.13321,-0.316949 -0.321542,-0.560402 -0.564995,-0.73036 -0.23886,-0.169958 -0.523654,-0.254937 -0.854383,-0.254937 -0.339916,0 -0.640787,0.089572 -0.902614,0.268717 -0.257234,0.174551 -0.457049,0.422598 -0.599446,0.74414 -0.137804,0.316949 -0.206706,0.693612 -0.206706,1.129991 0,0.431785 0.0689,0.808448 0.206706,1.12999 0.142397,0.321542 0.342212,0.571885 0.599446,0.75103 0.261827,0.174551 0.562698,0.261827 0.902614,0.261827 z"
       id="text14"
       aria-label="phor"
       sodipodi:nodetypes="cccccccsccssssccccccsccsccsccsccs" />
    <path
       style="opacity:1;fill:none;fill-opacity:1;stroke:#4ca643;stroke-width:0.499999;stroke-opacity:1"
       d="M -83.081232,10.334177 H 5.7367705 L 6.7525231,9.3184243 h 5.0787619"
       id="path6"
       sodipodi:nodetypes="cccc" />
    <path
       style="opacity:1;fill:none;fill-opacity:1;stroke:#4ca643;stroke-width:0.499999;stroke-opacity:1"
       d="M -83.081232,12.450845 H 7.3242705 l 1.5449193,-1.54492 h 2.9620952"
       id="path7"
       sodipodi:nodetypes="cccc" />
    <path
       style="opacity:1;fill:none;fill-opacity:1;stroke:#4ca643;stroke-width:0.499999;stroke-opacity:1"
       d="M -83.081232,14.038346 H 8.9117705 l 1.0157526,-1.015753 h 1.9037619"
       id="path8"
       sodipodi:nodetypes="cccc" />
    <path
       style="opacity:1;fill:none;fill-opacity:1;stroke:#4ca643;stroke-width:0.499999;stroke-opacity:1"
       d="M -83.081232,15.09668 H 8.3826038 l 1.0157526,1.100914 h 2.4329286"
       id="path9"
       sodipodi:nodetypes="cccc" />
    <path
       style="opacity:1;fill:none;fill-opacity:1;stroke:#4ca643;stroke-width:0.499999;stroke-opacity:1"
       d="M -83.081232,16.684182 H 8.3826038 l 1.0157526,1.100913 h 2.4329286"
       id="path10"
       sodipodi:nodetypes="cccc" />
    <circle
       style="opacity:1;fill:none;fill-opacity:1;stroke:#4ca643;stroke-width:0.391912;stroke-opacity:1"
       id="path11"
       cx="12.320831"
       cy="9.3184242"
       r="0.48954642" />
    <circle
       style="opacity:1;fill:none;fill-opacity:1;stroke:#4ca643;stroke-width:0.391912;stroke-opacity:1"
       id="circle11"
       cx="12.320831"
       cy="10.905925"
       r="0.48954642" />
    <circle
       style="opacity:1;fill:none;fill-opacity:1;stroke:#4ca643;stroke-width:0.391912;stroke-opacity:1"
       id="circle12"
       cx="12.320831"
       cy="13.022593"
       r="0.48954642" />
    <circle
       style="opacity:1;fill:none;fill-opacity:1;stroke:#4ca643;stroke-width:0.391912;stroke-opacity:1"
       id="circle13"
       cx="12.320831"
       cy="16.197594"
       r="0.48954642" />
    <circle
       style="opacity:1;fill:none;fill-opacity:1;stroke:#4ca643;stroke-width:0.391912;stroke-opacity:1"
       id="circle14"
       cx="12.320831"
       cy="17.785095"
       r="0.48954642"
       inkscape:label="circle14" />
    <circle
       style="opacity:0.197329;fill:#330c0a;fill-opacity:1;stroke:none;stroke-width:0.322659"
       id="path1"
       cx="14.414812"
       cy="12.035147"
       r="8.1817513" />
  </g>
</svg>
