<svg xmlns="http://www.w3.org/2000/svg" width="61.846" height="61.846" viewBox="0 0 16.364 16.364"><path fill="#0a3322" d="M-15.067-12.878h48.403v34.593h-48.403z"/><path fill="#fff" d="M5.109 14.793V4.637h2.005v.985h.02q.228-.38.545-.627.324-.255.73-.38.414-.13.882-.13.93 0 1.633.482.709.475 1.103 1.33.4.848.4 1.97 0 1.138-.394 1.992c-.394.854-.627 1.013-1.095 1.33s-1.022.475-1.66.475a2.7 2.7 0 0 1-.882-.138 2.2 2.2 0 0 1-.717-.413 2.3 2.3 0 0 1-.517-.689h-.02v3.969zm3.645-4.383q.495 0 .854-.248.366-.255.565-.73.207-.483.207-1.164 0-.683-.207-1.158a1.64 1.64 0 0 0-.565-.73 1.44 1.44 0 0 0-.854-.255q-.51 0-.903.268a1.7 1.7 0 0 0-.6.745q-.206.474-.206 1.13 0 .647.207 1.13.213.481.6.75.392.262.902.262" aria-label="phor"/><g fill="none" stroke="#4ca643"><g stroke-width=".5"><path d="M-89.314 6.48H-.496L.52 5.466h5.079M-89.314 8.598H1.092l1.545-1.545h2.962M-89.314 10.185H2.679l1.016-1.016h1.903M-89.314 11.244H2.15l1.016 1.1h2.433M-89.314 12.83H2.15l1.016 1.102h2.433"/></g><g stroke-width=".392" transform="translate(-6.233 -3.853)"><circle cx="12.321" cy="9.318" r=".49"/><circle cx="12.321" cy="10.906" r=".49"/><circle cx="12.321" cy="13.023" r=".49"/><circle cx="12.321" cy="16.198" r=".49"/><circle cx="12.321" cy="17.785" r=".49"/></g></g></svg>