<svg xmlns="http://www.w3.org/2000/svg" width="197.66" height="77.003" viewBox="0 0 52.299 20.374"><path fill="#fff" d="M9.929 13.146V2.99h2.005v.986h.02q.228-.38.545-.627.324-.255.73-.38.414-.13.882-.13.93 0 1.633.482.71.475 1.102 1.33.4.847.4 1.97 0 1.137-.393 1.992-.392.854-1.095 1.33t-1.66.475q-.476 0-.883-.138-.4-.138-.716-.413-.31-.276-.517-.69h-.02v3.97zm3.645-4.382q.496 0 .854-.248.365-.255.565-.73.207-.483.207-1.165t-.207-1.157q-.2-.476-.565-.73-.358-.256-.854-.256-.51 0-.903.27-.386.26-.6.743-.206.476-.206 1.13 0 .648.207 1.13.213.483.6.751.392.262.902.262m6.821-2.542v4.044h-2.033V0h2.033v4.885h-.379q.345-.964.985-1.502.641-.544 1.633-.544.779 0 1.35.337.573.331.883.972.317.64.317 1.564v4.554h-2.026V6.084q0-.73-.351-1.11-.345-.385-.986-.385-.42 0-.744.172t-.503.538q-.179.358-.179.923zM30 10.432q-1.096 0-1.93-.476-.833-.475-1.302-1.33-.461-.854-.461-1.991 0-1.144.461-1.998.469-.855 1.303-1.33.833-.482 1.929-.482 1.11 0 1.936.482.834.475 1.295 1.33.469.854.469 1.998 0 1.137-.469 1.991-.461.855-1.295 1.33-.827.476-1.936.476m0-1.647q.496 0 .868-.255.372-.262.579-.744.207-.483.207-1.151 0-.682-.207-1.164-.207-.483-.579-.738-.372-.262-.868-.262-.49 0-.861.262-.372.255-.58.738-.206.482-.206 1.164 0 .675.207 1.158.207.475.579.737.372.255.86.255m4.816 1.481V2.99h1.957v1.24h.02q.2-.654.628-.971.427-.317 1.15-.317.18 0 .324.007.152 0 .276.007v1.729l-.365-.02q-.249-.014-.51-.014-.414 0-.744.192-.331.187-.517.559t-.186.923v3.941z" aria-label="phor"/><path fill="#fff" d="M11.703 15.76v.453H9.929v-.453zm-1.19-.893h.526v3.374q0 .189.078.266.08.075.282.075h.304v.452h-.354q-.421 0-.63-.182-.207-.187-.207-.555zm3.025 4.242q-.48 0-.821-.22-.338-.22-.518-.605-.18-.387-.18-.88 0-.5.19-.887.188-.388.523-.608.335-.223.77-.223.34 0 .613.124.276.124.471.353.196.23.298.546.105.313.105.695v.145H12.3v-.452h2.396l-.226.158q0-.335-.121-.58-.118-.248-.335-.381-.217-.137-.512-.137-.291 0-.508.137-.214.133-.335.381-.118.245-.118.58v.223q0 .338.115.598.118.26.34.41.224.145.543.145.233 0 .41-.07.176-.075.291-.206.118-.13.168-.3h.527q-.062.313-.258.552-.195.235-.49.369-.291.133-.648.133m3.405 0q-.453 0-.797-.217-.341-.22-.533-.605-.19-.384-.19-.883 0-.503.19-.89.192-.388.533-.608.344-.22.797-.22.279 0 .514.087.24.083.42.238.182.152.297.36t.149.456h-.534q-.028-.146-.096-.267-.068-.12-.177-.207-.105-.09-.248-.14-.142-.05-.325-.05-.307 0-.53.155-.22.152-.338.431-.118.28-.118.655 0 .372.118.648t.338.428.53.151q.183 0 .322-.046.14-.047.239-.133.102-.09.17-.211.069-.124.106-.273h.543q-.035.242-.15.45-.114.207-.297.362t-.422.242q-.235.087-.511.087m2.496-1.99v1.916h-.527v-4.62h.527v2.139h-.161q.16-.443.446-.648.288-.208.676-.208.332 0 .605.146.272.143.434.431.164.288.164.726v2.034h-.527v-1.997q0-.425-.205-.639-.201-.217-.57-.217-.239 0-.434.096t-.313.304q-.115.205-.115.536m5.903 3.255q-.369 0-.666-.115-.295-.111-.484-.335-.186-.22-.226-.542h.54q.046.176.163.291.118.118.289.177.173.059.384.059.428 0 .673-.23.245-.226.245-.645v-.496h-.003q-.121.19-.28.314-.157.124-.346.183-.19.062-.407.062-.424 0-.747-.214-.32-.217-.496-.599-.177-.384-.177-.887 0-.505.177-.886.177-.385.496-.599.323-.214.747-.214.214 0 .407.06.195.058.356.185.165.127.276.329h.003v-.512h.515v3.274q0 .484-.202.779-.198.294-.527.428t-.71.133m-.037-1.752q.304 0 .527-.152t.344-.428.121-.645q0-.372-.12-.648-.122-.276-.345-.427-.223-.152-.527-.152-.282 0-.502.14-.217.139-.341.411-.124.273-.124.676 0 .4.124.673t.34.413q.22.14.503.14m2.257.413V15.76h.503v.515h.012q.09-.254.285-.41.196-.154.503-.154.07 0 .13.006.062.006.093.012v.527q-.031-.009-.121-.021-.087-.016-.202-.016-.18 0-.335.084t-.248.26-.093.456v2.016zm3.336.074q-.452 0-.796-.217-.341-.22-.534-.605-.189-.384-.189-.883 0-.503.19-.89.192-.388.533-.608.344-.22.796-.22.456 0 .797.22t.53.608q.193.387.193.89 0 .499-.192.883-.19.385-.53.605-.342.217-.798.217m0-.478q.31 0 .53-.151.22-.152.339-.428.117-.28.117-.648 0-.376-.117-.652-.118-.279-.338-.434t-.53-.155q-.307 0-.53.155-.22.152-.339.431-.117.28-.117.655 0 .372.117.648t.338.428.53.151m2.738.404L32.62 15.76h.552l.413 1.439q.096.332.183.679.09.347.18.682h-.075q.09-.335.18-.682t.186-.679l.415-1.439h.521l.41 1.439q.096.332.182.679.09.347.18.682h-.083q.093-.335.182-.682.093-.347.19-.679l.421-1.439h.552l-1.017 3.275h-.552l-.43-1.489q-.063-.223-.125-.452l-.118-.46q-.058-.232-.12-.455h.14q-.063.223-.125.456-.059.23-.12.459-.06.229-.125.452l-.44 1.489zm5.485-3.275v.453h-1.773v-.453zm-1.19-.893h.527v3.374q0 .189.077.266.08.075.282.075h.304v.452h-.353q-.422 0-.63-.182-.207-.186-.207-.555zm2.263 2.251v1.917h-.527v-4.62h.527v2.139h-.161q.161-.443.446-.648.289-.208.676-.208.332 0 .605.146.273.143.434.431.164.288.164.726v2.034h-.527v-1.997q0-.425-.205-.639-.201-.217-.57-.217-.239 0-.434.096t-.313.304q-.115.205-.115.536m5.06-2.703v4.62h-.527v-4.62zm1.78 4.67q-.326 0-.583-.112t-.41-.332q-.148-.223-.148-.549 0-.282.108-.459.112-.177.295-.276.186-.102.419-.155.235-.053.48-.084.313-.043.493-.065t.254-.071q.078-.05.078-.174v-.03q0-.18-.087-.317-.084-.14-.248-.217-.161-.08-.39-.08-.227 0-.404.077-.173.074-.279.205-.102.13-.115.294h-.536q.016-.3.186-.533.17-.236.465-.372.295-.137.682-.137.286 0 .515.078.233.077.394.22.164.143.251.341t.087.44v2.258h-.521v-.466h-.013q-.058.118-.173.24-.115.117-.31.198-.192.077-.49.077m.074-.472q.323 0 .524-.115.202-.118.295-.304t.093-.4v-.409q-.031.028-.115.053-.08.025-.201.05-.118.021-.258.043-.136.021-.276.04-.189.025-.36.087-.167.059-.272.17-.106.109-.106.295 0 .152.081.264.084.108.236.167t.36.059m3.77.484q-.21 0-.402-.062-.193-.06-.354-.183-.161-.124-.279-.314h-.006v.497h-.515v-4.62h.527v1.829h.006q.106-.183.264-.304t.353-.18q.196-.062.407-.062.427 0 .747.214t.496.599q.177.38.177.886 0 .503-.177.887-.177.381-.496.599-.32.213-.747.213m-.08-.475q.285 0 .502-.14.217-.139.341-.412t.124-.673q0-.403-.124-.676-.124-.272-.34-.412t-.503-.14q-.304 0-.527.152t-.344.428-.121.648q0 .37.12.645.122.276.345.428t.527.152" aria-label="tech growth lab"/><g fill="none" stroke="#4ca643"><g stroke-width=".5"><path d="M-84.494 4.834H4.324L5.34 3.82h5.078M-84.494 6.951H5.912l1.545-1.545h2.962M-84.494 8.538H7.499l1.016-1.016h1.903M-84.494 9.597H6.97l1.016 1.101h2.432M-84.494 11.184H6.97l1.016 1.101h2.432"/></g><g stroke-width=".392" transform="translate(-1.413 -5.5)"><circle cx="12.321" cy="9.318" r=".49"/><circle cx="12.321" cy="10.906" r=".49"/><circle cx="12.321" cy="13.023" r=".49"/><circle cx="12.321" cy="16.198" r=".49"/><circle cx="12.321" cy="17.785" r=".49"/></g></g></svg>