<svg enable-background="new 0 0 388.6 72" viewBox="0 0 388.6 72" xmlns="http://www.w3.org/2000/svg"><path d="m179.2 24.6c0-13.2-8.6-23.2-26.4-23.2h-35.8v69h16.8v-54h19c7 0 9.6 4 9.6 8.6 0 4.8-2.6 8.6-9.6 8.6h-16.2l23.2 36.8h19.2s-15.8-24.8-15.6-24.8c9.6-2.2 15.8-9 15.8-21m-90.2-23.2h16.8v69h-16.8zm-53.8 0-35.2 69.2h19l5.6-11.6h28.4l-7-14.6h-14.2l10.4-21.2h.2l23.6 47.4h19.4l-35.2-69.2zm205.4 33.2c5.4-3 8.2-7.6 8.2-14.6 0-11.2-8.4-18.6-22.2-18.6h-39.4v69h40.8c14.2 0 23.6-7.6 23.6-19.4.2-8-4.4-14-11-16.4m-36.6-18.6h22.4c3.4 0 6 2.6 6 6s-2.6 6-6 6h-22.4zm23 40h-23v-14h23c4 0 7.2 3 7.2 7s-3.2 7-7.2 7m77.8-16c0 10.4-4.8 16.2-14.4 16.2-9.4 0-14.2-5.8-14.2-16.2v-38.6h-17.2v37.4c0 21.4 11.2 33.2 31.6 33.2s31.6-11.8 31.6-33.2v-37.4h-17.2v38.6zm62.2-11c-16-3.8-19.4-4.2-19.4-8.8 0-3.6 4-5.2 10.8-5.2 9 0 18.4 2.2 23.8 5.6l5.4-14c-7.2-4-17.2-6.6-29.2-6.6-17.8 0-27.8 8.8-27.8 20.8 0 12.8 7.4 18 24.6 21.6 13.4 3 16.2 4.8 16.2 8.6 0 4-3.6 5.8-11 5.8-10.6 0-20-2.6-27.6-6.8l-5.2 14.8c8.4 4.4 20.8 7.2 33.2 7.2 17.4 0 27.8-8 27.8-21.6.2-11-6.8-18-21.6-21.4" fill="#00205b"/></svg>