<svg fill="none" height="100%" preserveaspectratio="xMidYMid meet" role="img" viewBox="0 0 135 30" width="100%" xmlns="http://www.w3.org/2000/svg">
<g clip-path="url(#clip0_2879_2528)">
<path d="M4.46 24.3801C4.97 24.8901 5.22 25.5001 5.22 26.2101C5.22 26.9201 4.97 27.5401 4.46 28.0601C3.95 28.5801 3.34 28.8401 2.63 28.8401C1.92 28.8401 1.27 28.5901 0.76 28.0801C0.25 27.5701 0 26.9601 0 26.2501C0 25.5401 0.25 24.9201 0.76 24.4001C1.27 23.8801 1.89 23.6201 2.63 23.6201C3.37 23.6201 3.95 23.8701 4.46 24.3801Z" fill="Currentcolor"></path>
<path d="M47.7901 0.76C48.3001 1.27 48.5501 1.88 48.5501 2.59C48.5501 3.3 48.3001 3.92 47.7901 4.44C47.2801 4.96 46.6701 5.22 45.9601 5.22C45.2501 5.22 44.6001 4.97 44.0901 4.46C43.5801 3.95 43.3301 3.34 43.3301 2.63C43.3301 1.92 43.5801 1.3 44.0901 0.78C44.6001 0.26 45.2201 0 45.9601 0C46.7001 0 47.2801 0.25 47.7901 0.76Z" fill="Currentcolor"></path>
<path d="M9.8298 13.5001L9.9998 10.8301C10.8998 10.0901 11.8698 9.49007 12.8998 9.02007C13.9298 8.55007 15.1798 8.32007 16.6598 8.32007C17.6498 8.32007 18.6298 8.46007 19.5998 8.73007C20.5698 9.00007 21.4298 9.49007 22.1698 10.1701C22.7198 10.6901 23.1398 11.3001 23.4198 12.0001C23.7098 12.7001 23.8498 13.6201 23.8498 14.7801C23.8498 15.0301 23.7598 25.4901 23.9098 26.0901C24.0598 26.6901 24.4898 27.0001 25.1998 27.0001C25.5598 27.0001 25.7098 26.9601 26.0898 26.8501L26.2698 27.9501C25.6698 28.2501 25.1498 28.4801 24.7098 28.6301C24.2698 28.7801 23.8098 28.8601 23.3098 28.8601C22.5998 28.8601 21.9498 28.6301 21.3798 28.1801C20.7998 27.7301 20.4098 27.0601 20.1898 26.1901C19.3398 27.0701 18.4498 27.7701 17.5198 28.2901C16.5898 28.8101 15.4098 29.0701 13.9798 29.0701C12.9698 29.0701 12.0898 28.9001 11.3698 28.5601C10.6398 28.2201 10.0498 27.7701 9.5998 27.2201C9.1498 26.6701 8.8198 26.0801 8.6098 25.4501C8.4098 24.8201 8.2998 24.2001 8.2998 23.6001C8.2998 22.5601 8.4898 21.6901 8.8598 21.0101C9.2298 20.3301 9.7298 19.7801 10.3598 19.3601C10.9898 18.9501 11.6598 18.6301 12.3698 18.4101C13.0798 18.1901 13.9998 17.9601 15.1298 17.7101L18.7098 16.9301C19.2898 16.7901 19.6798 16.5701 19.8998 16.2701C20.1198 15.9701 20.2298 15.5301 20.2298 14.9501C20.2298 13.5801 19.7998 12.4901 18.9598 11.6801C18.1098 10.8701 16.9998 10.4701 15.6298 10.4701C14.8298 10.4701 14.1598 10.5701 13.5898 10.7801C13.0298 10.9901 12.5798 11.2501 12.2298 11.5801C11.8898 11.9101 11.6198 12.2301 11.4298 12.5501C11.2398 12.8701 11.0698 13.1701 10.9398 13.4701V13.5101H9.8298V13.5001ZM20.1498 18.2701C18.4498 18.5201 17.0698 18.8101 16.0198 19.1501C14.9598 19.4901 14.1698 19.8701 13.6398 20.2801C13.0998 20.6901 12.7498 21.1301 12.5698 21.6001C12.3898 22.0701 12.2998 22.6101 12.2998 23.2501C12.2998 24.4601 12.6598 25.3301 13.3898 25.8801C14.1098 26.4301 14.9198 26.7001 15.7898 26.7001C16.8898 26.7001 17.8898 26.3201 18.7898 25.5701C19.6898 24.8201 20.1498 23.8901 20.1498 22.8001V18.2801V18.2701Z" fill="Currentcolor"></path>
<path d="M40.2201 12.3901C39.8901 12.2001 39.5801 12.0601 39.2701 11.9801C38.9701 11.9001 38.5701 11.8601 38.0801 11.8601C37.0401 11.8601 36.1801 12.1101 35.5101 12.6201C34.8401 13.1301 34.3501 13.6601 34.0501 14.2001C33.9101 14.5301 33.8601 14.6401 33.7701 14.9601V29.0501H29.3701V8.31006H33.7701L33.7901 12.2201C34.0101 11.7001 33.8401 12.0901 34.1601 11.5801C34.4801 11.0701 34.9001 10.5701 35.4401 10.0601C35.9701 9.55006 36.6201 9.13006 37.3901 8.81006C38.1601 8.48006 39.0501 8.32006 40.0601 8.32006C40.1401 8.32006 40.7201 8.36006 40.8001 8.36006C40.5501 9.29006 40.4601 11.7501 40.5101 12.1801L40.2201 12.3901Z" fill="Currentcolor"></path>
<path d="M43.8398 8.32007H47.9898L48.0298 29.0501H43.8798L43.8398 8.32007Z" fill="Currentcolor"></path>
<path d="M52.5998 13.5001L52.7598 10.8301C53.6598 10.0901 54.6298 9.49007 55.6598 9.02007C56.6898 8.55007 57.9398 8.32007 59.4198 8.32007C60.4098 8.32007 61.3898 8.46007 62.3598 8.73007C63.3298 9.00007 64.1898 9.49007 64.9298 10.1701C65.4798 10.6901 65.8998 11.3001 66.1798 12.0001C66.4698 12.7001 66.6098 13.6201 66.6098 14.7801C66.6098 15.0301 66.5198 25.4901 66.6698 26.0901C66.8198 26.6901 67.2498 27.0001 67.9698 27.0001C68.3198 27.0001 68.6698 26.9301 68.9998 26.7901L69.0398 27.9401C68.4398 28.2401 67.9198 28.4701 67.4798 28.6201C67.0398 28.7701 66.5798 28.8501 66.0798 28.8501C65.3698 28.8501 64.7198 28.6201 64.1498 28.1701C63.5698 27.7201 63.1798 27.0501 62.9598 26.1801C62.1098 27.0601 61.2198 27.7601 60.2898 28.2801C59.3598 28.8001 58.1798 29.0601 56.7498 29.0601C55.7398 29.0601 54.8598 28.8901 54.1398 28.5501C53.4098 28.2101 52.8198 27.7601 52.3698 27.2101C51.9198 26.6601 51.5898 26.0701 51.3798 25.4401C51.1698 24.8101 51.0698 24.1901 51.0698 23.5901C51.0698 22.5501 51.2598 21.6801 51.6298 21.0001C51.9998 20.3201 52.4998 19.7701 53.1298 19.3501C53.7598 18.9401 54.4298 18.6201 55.1398 18.4001C55.8498 18.1801 56.7698 17.9501 57.8998 17.7001L61.4798 16.9201C62.0598 16.7801 62.4498 16.5601 62.6698 16.2601C62.8898 15.9601 62.9998 15.5201 62.9998 14.9401C62.9998 13.5701 62.5698 12.4801 61.7198 11.6701C60.8698 10.8601 59.7598 10.4601 58.3898 10.4601C57.5998 10.4601 56.9198 10.5601 56.3498 10.7701C55.7898 10.9801 55.3398 11.2401 54.9898 11.5701C54.6498 11.9001 54.3798 12.2201 54.1898 12.5401C53.9998 12.8601 53.8298 13.1601 53.6998 13.4601V13.5001H52.5898H52.5998ZM62.9198 18.2701C61.2198 18.5201 59.8398 18.8101 58.7898 19.1501C57.7298 19.4901 56.9398 19.8701 56.4098 20.2801C55.8798 20.6901 55.5198 21.1301 55.3398 21.6001C55.1598 22.0701 55.0698 22.6101 55.0698 23.2501C55.0698 24.4601 55.4298 25.3301 56.1598 25.8801C56.8898 26.4301 57.6898 26.7001 58.5598 26.7001C59.6598 26.7001 60.6598 26.3201 61.5598 25.5701C62.4598 24.8201 62.9198 23.8901 62.9198 22.8001V18.2801V18.2701Z" fill="Currentcolor"></path>
<path d="M72.1301 8.32006H76.4501C76.4501 8.32006 76.4801 11.3701 76.4501 11.9101C77.1901 10.8701 77.7101 10.3101 78.9101 9.53006C80.1201 8.75006 81.6101 8.36006 83.3901 8.36006C84.9501 8.36006 86.2301 8.60006 87.2101 9.08006C88.2001 9.56006 88.9201 10.1801 89.3701 10.9301C89.8201 11.6901 90.1201 12.4401 90.2501 13.1901C90.3901 13.9501 90.4601 14.7201 90.4601 15.5101C90.4601 15.5401 90.3901 28.4101 90.4201 29.0401H86.1401C86.2201 27.6401 86.2901 26.6201 86.3501 25.4601C86.4001 24.3101 86.4501 23.2701 86.4701 22.3401C86.5001 21.1601 86.5101 20.0101 86.5101 18.8801C86.5101 17.5901 86.4701 16.5201 86.3901 15.6501C86.3101 14.7901 86.1101 13.9801 85.7901 13.2401C85.4701 12.5001 85.0001 11.9201 84.3501 11.4901C83.7101 11.0701 82.8401 10.8501 81.7401 10.8501C79.4901 10.8501 77.8601 11.8001 76.8501 13.6901C76.6801 14.0201 76.5501 14.5201 76.4401 15.1901V29.0301H72.0801L72.1201 8.31006L72.1301 8.32006Z" fill="Currentcolor"></path>
<path d="M97.6698 18.5601C97.6698 19.5201 97.7398 20.4501 97.8798 21.3601C98.0198 22.2601 98.3198 23.1301 98.7798 23.9501C99.2198 24.6601 99.6998 25.2501 100.24 25.7001C100.77 26.1501 101.3 26.4801 101.82 26.6901C102.34 26.9001 102.82 27.0301 103.26 27.0801C103.7 27.1401 104.12 27.1601 104.54 27.1601C105.47 27.1601 106.31 27.0401 107.07 26.7901C107.82 26.5401 108.46 26.2401 108.98 25.8901C109.5 25.5301 109.92 25.1801 110.25 24.8401C110.58 24.5001 110.85 24.1601 111.07 23.8301L111.56 23.9501C111.42 24.6101 111.33 25.3201 111.27 26.0901V26.4201C109.4 28.2001 106.86 29.0901 103.62 29.0901C100.38 29.0901 98.0298 28.1701 96.2398 26.3301C94.4398 24.4901 93.5498 21.9801 93.5498 18.8001C93.5498 17.3501 93.7498 15.9901 94.1498 14.7301C94.5498 13.4701 95.1598 12.3601 95.9798 11.4001C96.7998 10.4401 97.8498 9.69011 99.0998 9.16011C100.36 8.63011 101.8 8.36011 103.42 8.36011C105.39 8.36011 107 8.70011 108.25 9.39011C109.5 10.0801 110.41 10.9501 111 12.0201C111.59 13.0901 111.97 14.1601 112.15 15.2501C112.33 16.3301 112.42 17.4401 112.42 18.5601H97.6598H97.6698ZM108.32 16.8301C108.32 16.2001 108.28 15.5501 108.22 14.8801C108.15 14.2101 107.96 13.5001 107.65 12.7401C107.33 11.9901 106.83 11.3401 106.15 10.8101C105.46 10.2701 104.55 10.0101 103.39 10.0101C101.66 10.0101 100.33 10.6101 99.3998 11.8201C98.4698 13.0301 97.8998 14.7001 97.7198 16.8401H108.33L108.32 16.8301Z" fill="Currentcolor"></path>
<path d="M119.63 18.5601C119.63 19.5201 119.7 20.4501 119.84 21.3601C119.98 22.2601 120.28 23.1301 120.75 23.9501C121.19 24.6601 121.67 25.2501 122.21 25.7001C122.74 26.1501 123.27 26.4801 123.79 26.6901C124.31 26.9001 124.79 27.0301 125.23 27.0801C125.67 27.1401 126.09 27.1601 126.51 27.1601C127.44 27.1601 128.28 27.0401 129.04 26.7901C129.79 26.5401 130.43 26.2401 130.95 25.8901C131.47 25.5301 131.89 25.1801 132.22 24.8401C132.55 24.5001 132.82 24.1601 133.04 23.8301L133.53 23.9501C133.39 24.6101 133.3 25.3201 133.24 26.0901V26.4201C131.37 28.2001 128.83 29.0901 125.59 29.0901C122.35 29.0901 120 28.1701 118.21 26.3301C116.41 24.4901 115.52 21.9801 115.52 18.8001C115.52 17.3501 115.72 15.9901 116.12 14.7301C116.52 13.4701 117.13 12.3601 117.95 11.4001C118.77 10.4401 119.81 9.69011 121.07 9.16011C122.33 8.63011 123.77 8.36011 125.39 8.36011C127.36 8.36011 128.97 8.70011 130.22 9.39011C131.47 10.0801 132.38 10.9501 132.97 12.0201C133.56 13.0901 133.94 14.1601 134.12 15.2501C134.3 16.3301 134.39 17.4401 134.39 18.5601H119.63ZM130.28 16.8301C130.28 16.2001 130.24 15.5501 130.18 14.8801C130.11 14.2101 129.92 13.5001 129.61 12.7401C129.29 11.9901 128.79 11.3401 128.11 10.8101C127.42 10.2701 126.51 10.0101 125.35 10.0101C123.62 10.0101 122.29 10.6101 121.36 11.8201C120.43 13.0301 119.86 14.7001 119.68 16.8401H130.29L130.28 16.8301Z" fill="Currentcolor"></path>
</g>
<defs>
<clipPath id="clip0_2879_2528">
<rect fill="Currentcolor" height="29.09" width="134.39"></rect>
</clipPath>
</defs>
</svg>