<svg fill="none" viewBox="0 0 165 38" xmlns="http://www.w3.org/2000/svg"><g fill="#fffdf7"><path d="m52.5765 28.7174c.0372.0975.0298.1949-.0298.2773-.0596.0825-.1416.1349-.2459.1349h-6.594c-.1043 0-.1863-.0449-.2459-.1349-.0596-.0824-.0671-.1873-.0298-.2773l.8121-2.0385v-14.4645l-5.8713 1.9036c-.0968.03-.1862.015-.2682-.045-.0819-.0599-.1192-.1423-.1192-.2398v-4.73654c0-.16488.1341-.29978.298-.29978h17.45c.1639 0 .298.1349.298.29978v4.73654c0 .0975-.0447.1874-.1266.2398-.082.06-.1714.075-.2683.045l-5.8713-1.9036v14.457l.8122 2.0385z"/><path d="m58.9841 26.686v-8.3415l-.976-1.6338c-.0447-.0824-.0596-.1723-.0224-.2548.0298-.0899.0969-.1499.1863-.1799l1.0208-.3222h.0074l4.925-1.3565c.0894-.0225.1789-.0075.2534.0524.0745.06.1117.1424.1117.2324v1.0492c.6632-.6146 1.5126-1.1167 2.3098-1.4015.8643-.3073 1.8106-.4197 2.7047-.1499.1266.0375.2086.1499.2086.2848v4.3993c0 .1199-.0745.2323-.1863.2773-.1117.045-.2384.015-.3204-.0749-.7301-.7795-1.7956-1.0643-2.8313-.8844-.7004.1274-1.669.5696-1.8478 1.3415-.0149.075-.0298.1574-.0298.2324v6.7151l.8121 2.0385c.0373.09.0298.1949-.0298.2773-.0596.0825-.1415.1274-.2459.1274h-6.594c-.0968 0-.1863-.0449-.2459-.1274-.0596-.0824-.067-.1799-.0298-.2773l.8122-2.0385z"/><path d="m80.8973 20.1658c.0298-.4796-.0298-.9668-.1416-1.4239-.3353-1.3116-1.3263-2.818-2.8835-2.4507-.067.0149-.1341.0374-.2012.0599-.7525.2998-1.1623 1.1916-1.356 1.9261-.2832 1.0642-.2757 2.2784-.1043 3.3801zm-4.098 3.6574c.6184 1.8961 2.5631 3.0203 4.4407 3.2901.3278.045.6631.0675.9984.0675 1.1251 0 2.2576-.2698 3.2412-.8244.1266-.0675.2756-.045.3725.0674.0894.1124.0894.2698 0 .3747-1.6466 1.9636-4.2097 2.6681-6.6834 2.6681-4.627 0-8.3599-2.728-8.3599-7.637 0-4.9089 3.7105-7.6069 8.3226-7.6069 4.2768 0 6.6834 2.0085 6.9517 6.3329.0074.1349-.0745.2548-.2012.2997l-1.0133.3223-3.1964 1.0193-4.8804 1.5513.0149.06"/><path d="m97.1851 20.7587c-1.1698.1199-2.2204.6595-3.0027 1.5664-.6333.7344-1.1251 1.7912-1.0729 2.7729.0223.4047.1564.7945.4992 1.0343.6333.4422 1.5796.1799 2.1682-.2099.9313-.6145 1.4082-1.6413 1.4082-2.743v-2.4132zm6.3259 7.9667c.037.0899.03.1949-.03.2773-.06.0825-.141.1274-.246.1274h-5.7593c-.1639 0-.2906-.1349-.2906-.2923v-.8993c-1.4157 1.0792-3.0698 1.5439-4.8803 1.5439-1.9894 0-4.0086-.757-4.8282-2.7206-.8196-1.9486-.0373-4.092 1.3411-5.5609 2.0937-2.2259 5.3498-2.9679 8.2929-2.9679h.0745c-.0298-.5321-.1788-1.1242-.6408-1.4165-1.9074-1.2066-4.9399.5546-6.5344 1.6938-.0745.0525-.1565.0675-.2459.045s-.149-.075-.1937-.1574l-1.2741-2.6606c-.0373-.0749-.0373-.1499-.0075-.2323.0298-.0749.082-.1349.1565-.1649 4.247-1.8436 14.2538-2.3308 14.2538 4.3694v6.9774z"/><path d="m117.019 15.992-2.079 2.9754c-.052.0749-.126.1124-.216.1274-.089.0075-.171-.0225-.231-.0825-.924-.9143-2.622-2.683-3.986-2.683-1.363 0-1.147 1.1841-.246 1.7987.492.3297 1.066.5995 1.602.8394.663.2997 1.326.592 1.975.9143 1.862.9368 3.651 2.2259 3.651 4.5342 0 3.9122-3.771 5.0663-7.027 5.0663-2.145 0-4.291-.667-6.109-1.7912-.075-.0449-.119-.1124-.134-.1948-.015-.0825 0-.1574.044-.2324l2.28-3.2301c.052-.075.127-.1124.216-.1199.09-.0075.172.0224.231.0824 1.051 1.0417 2.191 2.2109 3.502 2.9229.328.1799.73.2923 1.103.3522.641.0975 1.84.0975 1.84-.8244 0-.5546-.871-1.0867-1.281-1.3265-.462-.2698-.939-.5021-1.416-.7345-.544-.2623-1.088-.5171-1.624-.7944-.499-.2548-.999-.5246-1.468-.8244-.685-.4347-1.378-.9593-1.855-1.6263-.283-.3972-.477-.8469-.567-1.3191-.201-1.0492.09-2.1584.634-3.0577.313-.5172.73-.9893 1.214-1.3491 1.267-.9518 2.981-1.1766 4.516-1.1766 1.996 0 3.561.3747 5.312 1.319.075.0375.127.1049.149.1949.022.0824 0 .1649-.045.2398"/><path d="m124.902 24.6699c0 .3598.045.9219.41 1.1092.507.2698 1.453-.2023 1.892-.4497.462-.2623.991-.5845 1.409-.9293v-6.0556l-.976-1.6338c-.045-.0824-.06-.1724-.023-.2548.03-.09.097-.1499.187-.1799l1.02-.3223h.008l4.925-1.3565c.089-.0225.179 0 .253.0525.075.0599.112.1424.112.2323v11.7965l.812 2.0385c.037.0899.03.1948-.03.2773-.059.0824-.141.1274-.246.1274h-5.819c-.164 0-.29-.1349-.29-.2923v-1.5289c-.678.5396-1.364 1.0717-2.116 1.4914-.909.5022-1.908.682-2.929.682-2.54.015-4.113-1.5888-4.113-4.1669v-6.97l-.976-1.6338c-.044-.0824-.059-.1724-.022-.2548.03-.0899.097-.1499.186-.1799l1.021-.3222h.008l4.925-1.3566c.089-.0224.178 0 .253.0525.074.06.112.1424.112.2323v9.7879z"/><path d="m137.837 26.686v-8.3415l-.976-1.6338c-.045-.0824-.06-.1723-.023-.2548.03-.0899.097-.1499.187-.1799l1.02-.3222h.008l4.925-1.3565c.089-.0225.179-.0075.253.0524.075.06.112.1424.112.2324v1.0492c.663-.6146 1.513-1.1167 2.31-1.4015.864-.3073 1.81-.4197 2.704-.1499.127.0375.209.1499.209.2848v4.3993c0 .1199-.074.2323-.186.2773s-.239.015-.321-.0749c-.73-.7795-1.795-1.0643-2.831-.8844-.7.1274-1.669.5696-1.848 1.3415-.015.075-.03.1574-.03.2324v6.7151l.813 2.0385c.037.09.029.1949-.03.2773-.06.0825-.142.1274-.246.1274h-6.594c-.097 0-.186-.0449-.246-.1274-.06-.0824-.067-.1799-.03-.2773l.812-2.0385z"/><path d="m159.75 20.1658c.03-.4796-.03-.9668-.142-1.4239-.335-1.3116-1.326-2.818-2.883-2.4507-.067.0149-.134.0374-.201.0599-.753.2998-1.163 1.1916-1.356 1.9261-.284 1.0642-.276 2.2784-.105 3.3801zm-4.098 3.6574c.618 1.8961 2.563 3.0203 4.441 3.2901.327.045.663.0675.998.0675 1.125 0 2.258-.2698 3.241-.8244.127-.0675.276-.045.373.0674.089.1124.089.2698 0 .3747-1.647 1.9636-4.21 2.6681-6.684 2.6681-4.627 0-8.36-2.728-8.36-7.637 0-4.9089 3.711-7.6069 8.323-7.6069 4.277 0 6.683 2.0085 6.952 6.3329.007.1349-.075.2548-.201.2997l-1.014.3223-3.196 1.0193-4.881 1.5513s.015.0375.015.06"/></g><path d="m0 11.8453v14.3167c0 2.3702 1.25867 4.5564 3.29304 5.7341l9.38156 5.4469c1.5074.876 3.3589.876 4.8663 0l9.3816-5.4469c2.0343-1.1851 3.293-3.3713 3.293-5.7341v-14.3167c0-2.37014-1.2587-4.55629-3.293-5.73402l-9.3816-5.454331c-1.5074-.875932-3.3589-.875932-4.8663 0l-9.38156 5.446971c-2.03437 1.18509-3.29304 3.37124-3.29304 5.74138z" fill="#dc2626"/><path d="m26.5638 18.6245-3.4468-1.1777c-1.266-.4343-2.21-1.509-2.4734-2.8266l-1.4563-7.22825c-.0365-.18402-.1975-.31651-.3878-.31651s-.3513.13249-.3879.31651l-1.4562 7.22825c-.2635 1.3176-1.2075 2.3923-2.4734 2.8266l-3.4468 1.1777c-.161.0515-.2634.2061-.2634.3754s.1098.3165.2634.3754l3.4468 1.1777c1.2659.4343 2.2099 1.509 2.4734 2.8266l1.4562 7.2282c.0366.1841.1976.3165.3879.3165s.3513-.1324.3878-.3165l1.4563-7.2282c.2634-1.3176 1.2074-2.3923 2.4734-2.8266l3.4468-1.1777c.161-.0515.2634-.2061.2634-.3754s-.1098-.3165-.2634-.3754z" fill="#fffdf7"/><path d="m8.02055 11.9928 1.21476.4122c.44639.1545.78299.5299.87079 1.001l.5123 2.5542c.0146.0663.0732.1104.139.1104.0659 0 .1244-.0441.1391-.1104l.5122-2.5542c.0952-.4637.4245-.8465.8782-1.001l1.2147-.4122c.0586-.0221.0952-.0736.0952-.1325s-.0366-.1104-.0952-.1325l-1.2147-.4122c-.4464-.1546-.783-.53-.8782-1.0011l-.5122-2.55419c-.0147-.06624-.0732-.11041-.1391-.11041-.0658 0-.1244.04417-.139.11041l-.5123 2.55419c-.0951.4637-.4244.8465-.87079 1.0011l-1.21476.4122c-.05855.0221-.09513.0736-.09513.1325s.03658.1104.09513.1325" fill="#fffdf7"/><path d="m10.8597 24.5352-1.63185-.5521c-.60007-.2061-1.04646-.714-1.17086-1.3396l-.68788-3.4228c-.01464-.0883-.09514-.1472-.18295-.1472-.08782 0-.16831.0589-.18295.1472l-.68788 3.4228c-.1244.6256-.57079 1.1335-1.17086 1.3396l-1.63188.5521c-.07318.0221-.12441.0957-.12441.1766 0 .081.05123.1546.12441.1767l1.63188.5521c.60007.2061 1.04646.714 1.17086 1.3396l.68788 3.4228c.01464.0883.09513.1472.18295.1472.08781 0 .16099-.0663.18295-.1472l.68788-3.4228c.1244-.6256.57079-1.1335 1.17086-1.3396l1.63185-.5521c.0732-.0221.1244-.0957.1244-.1767 0-.0809-.0512-.1545-.1244-.1766z" fill="#fffdf7"/></svg>